<?xml version="1.0" encoding="iso-8859-1"?>
<!-- Generator: Adobe Illustrator 18.0.0, SVG Export Plug-In . SVG Version: 6.00 Build 0)  -->
<!DOCTYPE svg PUBLIC "-//W3C//DTD SVG 1.1//EN" "http://www.w3.org/Graphics/SVG/1.1/DTD/svg11.dtd">
<svg version="1.1" id="Capa_1" xmlns="http://www.w3.org/2000/svg" xmlns:xlink="http://www.w3.org/1999/xlink" x="0px" y="0px"
	 viewBox="0 0 475.97 475.97" style="enable-background:new 0 0 475.97 475.97;" xml:space="preserve">
<path d="M470.47,110.21H5.5c-3.038,0-5.5,2.462-5.5,5.5v215.99c0,3.038,2.462,5.5,5.5,5.5h66.149
	c4.084,10.207,10.333,19.447,18.362,27.052c1.063,1.007,2.424,1.507,3.781,1.507c1.384,0,2.765-0.519,3.827-1.549
	c2.248-2.179,2.078-5.922-0.188-8.082c-8.546-8.144-14.727-18.456-17.879-29.834l-21.681-77.242
	c-0.824-3.238,1.125-6.551,4.362-7.399c2.819-0.74,5.709,0.636,6.979,3.14l12.211,40.83c0.713,2.385,2.899,3.926,5.268,3.926
	c0.521,0,1.052-0.075,1.578-0.232c2.911-0.871,4.564-3.935,3.694-6.845L71.82,215.121c-0.855-3.226,1.056-6.555,4.28-7.439
	c3.242-0.889,6.602,1.025,7.49,4.266c0.012,0.043,0.024,0.087,0.038,0.13l18.879,62.74c0.786,2.612,3.363,4.251,6.067,3.856
	c2.699-0.397,4.699-2.713,4.699-5.441v-80.764c0-0.209,0.011-0.415,0.031-0.618c0.292-2.88,2.896-4.977,5.792-4.977h0.545
	c2.895,0,5.5,2.097,5.792,4.977c0.021,0.203,0.031,0.41,0.031,0.618l0,80.831c0,2.873,2.1,5.438,4.96,5.711
	c3.28,0.313,6.04-2.258,6.04-5.474l0-75.718c0-3.098,2.221-5.862,5.293-6.257c3.717-0.477,6.898,2.419,6.898,6.044l0.001,89.435
	l-0.209,12.071c0,8.014,4.537,14.912,11.864,18.082c7.527,3.256,16.306,1.332,22.105-4.467l15.257-15.257
	c1.074-1.074,2.513-1.687,4.02-1.646c1.695,0.013,3.266,0.769,4.347,2.111c1.769,2.196,1.51,5.406-0.404,7.477l-25.745,27.856
	c-9.801,10.605-22.646,18.493-36.959,20.413c-3.065,0.411-5.178,3.257-4.706,6.297c0.422,2.715,2.763,4.655,5.428,4.655
	c0.281,0,0.566-0.022,0.853-0.066c16.145-2.512,31.143-10.503,42.232-22.502l4.494-4.862h93.502l4.494,4.862
	c11.089,11.999,26.088,19.99,42.232,22.502c0.287,0.044,0.571,0.066,0.853,0.066c2.754-0.001,5.163-2.073,5.464-4.932
	c0.311-2.955-1.928-5.573-4.862-6.041c-13.614-2.173-26.251-8.936-35.609-19.061l-27.115-29.34c-2.42-2.617-1.89-6.955,1.538-8.819
	c0.772-0.42,1.651-0.607,2.53-0.616l0,0c1.511-0.016,2.965,0.577,4.034,1.646l15.58,15.58c5.743,5.744,13.974,7.38,21.479,4.273
	c7.505-3.109,12.167-10.086,12.166-18.306l-0.207-101.41c0-3.624,3.18-6.52,6.897-6.044c3.072,0.394,5.293,3.158,5.293,6.255V273.3
	c0,2.872,2.099,5.438,4.959,5.711c3.28,0.314,6.041-2.258,6.041-5.474v-75.932v-5.136c0-0.209,0.011-0.415,0.031-0.618
	c0.292-2.88,2.896-4.977,5.792-4.977h0.546c2.895,0,5.5,2.097,5.792,4.977c0.021,0.203,0.031,0.41,0.031,0.618l0,80.565
	c0,2.536,1.63,4.876,4.084,5.516c2.925,0.762,5.838-0.922,6.682-3.732l18.879-62.74l0.012-0.04c0.87-2.977,3.788-4.997,6.849-4.501
	c1.865,0.302,3.434,1.396,4.351,3.006c0.797,1.399,1.008,3.023,0.596,4.577l-20.142,67.352c-0.87,2.91,0.783,5.975,3.693,6.845
	c0.526,0.157,1.057,0.232,1.578,0.232c2.368,0,4.555-1.541,5.268-3.926l12.206-40.814c0.523-1.043,1.331-1.918,2.362-2.521
	c1.406-0.822,3.049-1.047,4.622-0.635c1.575,0.413,2.895,1.414,3.717,2.819c0.814,1.393,1.043,3.018,0.646,4.58l-21.682,77.243
	c-3.152,11.378-9.332,21.689-17.878,29.833c-2.269,2.162-2.437,5.906-0.185,8.086c1.062,1.028,2.441,1.545,3.824,1.545
	c1.357,0,2.718-0.5,3.781-1.507c8.029-7.605,14.278-16.846,18.363-27.052h66.151c3.038,0,5.5-2.462,5.5-5.5V115.71
	C475.97,112.673,473.507,110.21,470.47,110.21z M61.905,303.8H30.49v-20.98h25.489l5.904,20.901L61.905,303.8z M445.47,271.82
	h-22.374l5.603-19.837c0.01-0.034,0.019-0.067,0.027-0.101c0.091-0.346,0.151-0.694,0.219-1.042h16.524V271.82z M445.47,207.851
	h-31.111c-0.336-0.942-0.744-1.864-1.249-2.751c-0.042-0.073-0.092-0.139-0.135-0.212v-18.014h32.494V207.851z M445.47,175.874
	h-42.883v-20.983h42.883V175.874z M391.587,175.874h-30.93v-20.983h30.93V175.874z M210.698,186.874v20.977H179.92v-20.977H210.698z
	 M252.476,186.874v20.977h-30.778v-20.977H252.476z M294.254,186.874v20.977h-30.778v-20.977H294.254z M243.484,239.84v-20.99
	h33.792v20.99H243.484z M198.692,239.84v-20.99h33.792v20.99H198.692z M159.655,239.84v-20.99h28.037v20.99H159.655z
	 M168.92,207.851h-9.265v-10.246c0-4.063-1.43-7.794-3.806-10.731h13.071V207.851z M159.655,250.84h9.265v20.98h-9.265V250.84z
	 M179.92,250.84h30.778v20.98H179.92V250.84z M221.698,250.84h30.778v20.98h-30.778V250.84z M263.476,250.84h30.778v20.98h-30.778
	V250.84z M305.254,250.84h11.059l0,20.98h-11.059V250.84z M288.276,239.84v-20.99h28.036l0,20.99H288.276z M305.254,207.851v-20.977
	h14.865c-2.376,2.937-3.806,6.668-3.806,10.731l0,10.246H305.254z M349.657,175.874h-30.931v-20.983h30.931V175.874z
	 M307.727,175.874h-30.93v-20.983h30.93V175.874z M265.797,175.874h-30.93v-20.983h30.93V175.874z M223.867,175.874h-30.93v-20.983
	h30.93V175.874z M181.937,175.874h-30.93v-20.983h30.93V175.874z M140.007,175.874h-30.93v-20.983h30.93V175.874z M98.077,175.874
	h-30.93v-20.983h30.93V175.874z M56.147,175.874H30.49v-20.983h25.657V175.874z M30.49,250.84h16.531
	c0.069,0.348,0.129,0.696,0.219,1.042c0.009,0.034,0.018,0.067,0.027,0.101l5.603,19.837H30.49V250.84z M59.445,231.012
	c-4.417,1.157-8.119,3.965-10.424,7.907c-0.176,0.301-0.323,0.613-0.48,0.921H30.49v-20.99h30.964l3.484,11.651
	C63.114,230.379,61.265,230.535,59.445,231.012z M73.191,197.073c-5.591,1.533-9.763,5.692-11.575,10.777H30.49v-20.977h45.978v9.64
	C75.379,196.594,74.283,196.774,73.191,197.073z M97.153,218.851h5.121v17.018L97.153,218.851z M102.274,192.469v15.381h-8.468
	c-1.229-3.47-3.483-6.333-6.337-8.315v-12.661h15.765C102.623,188.63,102.274,190.508,102.274,192.469z M274.569,326.201h-73.17
	l10.536-11.4h52.098L274.569,326.201z M286.072,289.69c-3.175-3.175-7.404-4.879-11.885-4.868c-4.49,0.036-8.684,1.832-11.808,5.057
	c-3.704,3.825-5.198,8.997-4.496,13.921h-39.799c0.702-4.925-0.792-10.097-4.497-13.922c-3.124-3.225-7.316-5.021-11.806-5.057
	c-4.5-0.014-8.711,1.693-11.886,4.868L175.785,303.8h-15.019c-0.848-1.332-1.319-2.898-1.319-4.594l0.209-12.071v-4.315h156.658
	v4.411l0.207,11.879c0,1.748-0.473,3.343-1.326,4.69h-15.012L286.072,289.69z M373.694,218.851h5.121l-5.121,17.017V218.851z
	 M382.162,207.851h-8.468v-15.381c0-1.962-0.349-3.839-0.96-5.595h29.241v10.022C393.548,195.011,385.032,199.75,382.162,207.851z
	 M416.522,231.012c-1.82-0.477-3.669-0.633-5.493-0.51l3.484-11.651h30.957v20.99h-18.043c-0.156-0.308-0.304-0.62-0.48-0.921
	C424.642,234.978,420.939,232.169,416.522,231.012z M419.989,282.82h25.481v20.98h-31.407l0.014-0.052L419.989,282.82z
	 M464.97,326.201h-57.113l3.159-11.4h39.955c3.037,0,5.5-2.462,5.5-5.5v-159.91c0-3.038-2.463-5.5-5.5-5.5H24.99
	c-3.038,0-5.5,2.462-5.5,5.5V309.3c0,3.038,2.462,5.5,5.5,5.5h39.962l3.159,11.4H11V121.21h453.97V326.201z"/>
<g>
</g>
<g>
</g>
<g>
</g>
<g>
</g>
<g>
</g>
<g>
</g>
<g>
</g>
<g>
</g>
<g>
</g>
<g>
</g>
<g>
</g>
<g>
</g>
<g>
</g>
<g>
</g>
<g>
</g>
</svg>
